<svg width="612" height="124" viewBox="0 0 612 124" fill="none" xmlns="http://www.w3.org/2000/svg">
    <path
        d="M599.578 122.87C595.6 122.87 592.541 121.748 590.399 119.505C588.257 117.261 587.186 114.048 587.186 109.866C587.186 106.093 588.308 103.033 590.552 100.687C592.898 98.2395 595.906 97.0156 599.578 97.0156C603.454 97.0156 606.462 98.1375 608.604 100.381C610.746 102.625 611.817 105.787 611.817 109.866C611.817 113.742 610.695 116.904 608.451 119.352C606.208 121.697 603.25 122.87 599.578 122.87Z"
        fill="#3747A6" />
    <path
        d="M540.225 122.699C531.454 122.699 523.804 120.914 517.277 117.344C510.75 113.774 505.65 108.879 501.978 102.658C498.307 96.4361 496.471 89.2967 496.471 81.2395C496.471 75.018 497.491 69.3066 499.531 64.105C501.57 58.9035 504.426 54.4159 508.098 50.6423C511.77 46.7666 516.104 43.8089 521.102 41.7691C526.201 39.6273 531.709 38.5564 537.624 38.5564C543.132 38.5564 548.231 39.5763 552.923 41.6161C557.614 43.5539 561.643 46.3587 565.009 50.0303C568.476 53.6 571.128 57.8326 572.964 62.7282C574.8 67.6237 575.616 72.9782 575.412 78.7917L575.259 85.5231H510.24L506.721 72.2133H557.359L554.912 74.9671V71.6014C554.708 68.8476 553.79 66.3488 552.158 64.105C550.628 61.8613 548.639 60.1274 546.191 58.9035C543.744 57.6796 540.99 57.0677 537.93 57.0677C533.443 57.0677 529.618 57.9346 526.456 59.6685C523.396 61.4023 521.051 63.9521 519.419 67.3178C517.787 70.6834 516.971 74.7631 516.971 79.5566C516.971 84.4522 517.991 88.6848 520.031 92.2545C522.173 95.8241 525.13 98.6289 528.904 100.669C532.78 102.607 537.318 103.575 542.52 103.575C546.089 103.575 549.353 103.014 552.311 101.893C555.269 100.771 558.43 98.8329 561.796 96.0791L572.199 110.613C569.241 113.265 565.978 115.508 562.408 117.344C558.838 119.078 555.167 120.404 551.393 121.322C547.619 122.24 543.897 122.699 540.225 122.699Z"
        fill="#3747A6" />
    <path
        d="M456.885 121.165V40.2353H478.609V121.165H456.885ZM467.594 23.5598C463.413 23.5598 460.149 22.5399 457.803 20.5001C455.457 18.4603 454.284 15.5536 454.284 11.7799C454.284 8.31224 455.457 5.5075 457.803 3.36569C460.251 1.1219 463.515 0 467.594 0C471.776 0 475.04 1.0709 477.385 3.21271C479.731 5.25252 480.904 8.10826 480.904 11.7799C480.904 15.3496 479.68 18.2053 477.232 20.3471C474.887 22.4889 471.674 23.5598 467.594 23.5598Z"
        fill="#3747A6" />
    <path
        d="M402.666 121.167V19.7371H424.39V121.167H402.666ZM387.521 59.6664V40.2372H440.913V59.6664H387.521Z"
        fill="#3747A6" />
    <path
        d="M347.098 122.699C339.55 122.699 332.819 121.475 326.904 119.027C321.09 116.477 316.399 113.01 312.829 108.624L326.292 96.997C329.453 100.363 332.972 102.811 336.848 104.34C340.723 105.768 344.599 106.482 348.475 106.482C350.004 106.482 351.381 106.329 352.605 106.023C353.931 105.615 355.053 105.105 355.971 104.493C356.889 103.779 357.552 102.963 357.96 102.046C358.47 101.026 358.725 99.9548 358.725 98.8329C358.725 96.5891 357.807 94.8042 355.971 93.4784C354.951 92.9684 353.37 92.3565 351.228 91.6425C349.087 90.8266 346.333 89.9597 342.967 89.0418C337.766 87.7159 333.329 86.186 329.657 84.4522C326.088 82.6163 323.232 80.5765 321.09 78.3328C319.254 76.1909 317.826 73.8961 316.806 71.4484C315.889 68.8986 315.43 66.0939 315.43 63.0341C315.43 59.3625 316.246 56.0478 317.877 53.0901C319.509 50.0303 321.753 47.4296 324.609 45.2878C327.567 43.146 330.932 41.5141 334.706 40.3922C338.48 39.1683 342.457 38.5564 346.639 38.5564C350.82 38.5564 354.9 39.0663 358.878 40.0863C362.855 41.1062 366.527 42.585 369.893 44.5228C373.36 46.3587 376.369 48.5515 378.919 51.1012L367.292 63.9521C365.456 62.2182 363.365 60.6374 361.019 59.2095C358.776 57.7816 356.43 56.6597 353.982 55.8438C351.534 55.0279 349.342 54.6199 347.404 54.6199C345.67 54.6199 344.089 54.7729 342.661 55.0789C341.335 55.3849 340.213 55.8438 339.295 56.4558C338.378 57.0677 337.664 57.8836 337.154 58.9035C336.746 59.8214 336.542 60.8414 336.542 61.9632C336.542 63.0851 336.797 64.156 337.307 65.176C337.919 66.1959 338.734 67.0628 339.754 67.7767C340.876 68.3887 342.508 69.1026 344.65 69.9185C346.894 70.7344 349.902 71.6524 353.676 72.6723C358.572 73.9981 362.702 75.477 366.068 77.1089C369.536 78.7407 372.289 80.6275 374.329 82.7693C376.063 84.6052 377.338 86.696 378.154 89.0418C378.97 91.3875 379.378 93.9883 379.378 96.844C379.378 101.842 377.95 106.329 375.094 110.307C372.34 114.182 368.516 117.242 363.62 119.486C358.725 121.628 353.217 122.699 347.098 122.699Z"
        fill="#3747A6" />
    <path
        d="M260.846 122.699C252.585 122.699 245.191 120.914 238.664 117.344C232.238 113.673 227.139 108.675 223.365 102.352C219.693 96.0281 217.857 88.7868 217.857 80.6275C217.857 72.4683 219.693 65.2779 223.365 59.0565C227.139 52.7331 232.238 47.7356 238.664 44.0639C245.191 40.3922 252.585 38.5564 260.846 38.5564C269.006 38.5564 276.298 40.3922 282.723 44.0639C289.251 47.7356 294.35 52.7331 298.022 59.0565C301.694 65.2779 303.53 72.4683 303.53 80.6275C303.53 88.7868 301.694 96.0281 298.022 102.352C294.35 108.675 289.251 113.673 282.723 117.344C276.298 120.914 269.006 122.699 260.846 122.699ZM260.846 103.728C264.824 103.728 268.394 102.76 271.555 100.822C274.717 98.7819 277.165 96.0281 278.899 92.5604C280.735 88.9908 281.653 85.0131 281.653 80.6275C281.653 76.1399 280.735 72.1623 278.899 68.6946C277.165 65.125 274.717 62.3712 271.555 60.4334C268.394 58.3936 264.824 57.3737 260.846 57.3737C256.767 57.3737 253.146 58.3936 249.984 60.4334C246.823 62.4732 244.324 65.227 242.488 68.6946C240.652 72.1623 239.785 76.1399 239.887 80.6275C239.785 85.0131 240.652 88.9908 242.488 92.5604C244.324 96.0281 246.823 98.7819 249.984 100.822C253.146 102.76 256.767 103.728 260.846 103.728Z"
        fill="#3747A6" />
    <path
        d="M128.019 121.18V7.97046H149.437V56.773L145.154 58.6088C146.276 54.9371 148.264 51.6224 151.12 48.6647C154.078 45.605 157.597 43.1572 161.676 41.3214C165.756 39.4856 170.039 38.5676 174.527 38.5676C180.646 38.5676 185.746 39.7915 189.826 42.2393C194.007 44.6871 197.118 48.4097 199.158 53.4073C201.3 58.3028 202.37 64.3713 202.37 71.6126V121.18H180.646V73.2955C180.646 69.6238 180.137 66.5641 179.117 64.1163C178.097 61.6685 176.516 59.8837 174.374 58.7618C172.334 57.5379 169.784 57.028 166.725 57.2319C164.277 57.2319 161.982 57.6399 159.84 58.4558C157.801 59.1698 156.016 60.2407 154.486 61.6685C153.058 63.0964 151.885 64.7282 150.967 66.5641C150.151 68.3999 149.743 70.3887 149.743 72.5305V121.18H139.034C136.688 121.18 134.598 121.18 132.762 121.18C130.926 121.18 129.345 121.18 128.019 121.18Z"
        fill="#3747A6" />
    <path fill-rule="evenodd" clip-rule="evenodd"
        d="M81.7902 17.0902C84.2054 13.6443 88.2067 11.3914 92.7341 11.3914C100.11 11.3914 106.089 17.3705 106.089 24.7463V30.8578C106.089 38.2335 100.11 44.2127 92.7341 44.2127C89.632 44.2127 86.777 43.1551 84.5098 41.3807C84.1908 41.674 83.8897 42.0558 83.5839 42.4438C82.664 43.6106 81.7005 44.8327 80.0728 43.8663C78.6122 42.971 76.5815 40.1872 74.4743 37.2983C71.8938 33.7606 69.1985 30.0654 67.2943 29.4884C63.8353 28.4402 60.3762 27.9161 56.9171 27.9161C51.2569 27.9161 46.0159 28.9119 41.1942 30.9035C38.6274 31.9872 37.985 35.8644 37.3416 39.7482C36.8026 43.0016 36.2628 46.2595 34.5905 47.8841C32.9362 49.5384 30.164 49.4649 27.4689 49.3935C24.3579 49.3111 21.3497 49.2315 20.2826 51.815C19.2651 54.225 22.2153 56.3887 25.3445 58.6837C28.3398 60.8804 31.4991 63.1974 31.4991 65.9657C31.4991 67.7654 31.2705 69.6737 31.0398 71.6C30.5718 75.5077 30.0949 79.4894 31.4991 82.7893C32.041 84.0357 32.4887 85.2226 32.918 86.3609C34.1495 89.6257 35.2298 92.4901 37.9501 95.2104C40.0031 97.2064 41.3904 96.8996 43.0051 96.5424C44.3584 96.2432 45.8714 95.9086 48.0698 96.8644C50.6459 97.9606 51.4996 96.8563 52.5072 95.553C53.4265 94.3639 54.4739 93.0092 57.0744 93.0092C58.8378 93.0092 60.6971 93.6333 62.5359 94.2506C64.9598 95.0643 67.348 95.866 69.4342 95.2104C71.2691 94.5813 72.9358 96.4694 74.4976 98.2387C76.0585 100.007 77.5147 101.656 78.9293 100.556C79.0811 100.438 79.2311 100.319 79.3792 100.199V84.2202L74.4498 82.7893L76.8082 84.9905L56.6027 82.7893V65.9657H87.6913C88.8691 65.5815 90.1266 65.3738 91.4326 65.3738H94.0357C95.3417 65.3738 96.5992 65.5815 97.7769 65.9657H105.344C105.554 67.1187 105.711 68.2717 105.816 69.4247C105.92 70.4729 105.973 71.5211 105.973 72.5693C106.078 73.5127 106.13 74.4561 106.13 75.3995C106.13 76.1534 106.116 76.9004 106.089 77.6407V111.946C106.089 118.603 100.693 124 94.0357 124H91.4326C87.084 124 83.2732 121.697 81.1533 118.244C79.5843 119.08 77.952 119.84 76.2564 120.524C70.3865 122.83 63.9925 123.983 57.0744 123.983C49.1081 123.983 41.6659 122.568 34.7478 119.738C27.8297 116.803 21.7501 112.768 16.5091 107.632C11.2681 102.495 7.18016 96.5207 4.2452 89.7074C1.41507 82.7893 0 75.3471 0 67.3807C0 59.5193 1.41507 52.1819 4.2452 45.3686C7.18016 38.5553 11.2157 32.633 16.3519 27.6016C21.5929 22.4655 27.6724 18.4823 34.5905 15.6522C41.5086 12.8221 48.9508 11.407 56.9171 11.407C62.4726 11.407 67.8708 12.1931 73.1118 13.7654C76.1769 14.6669 79.0697 15.7752 81.7902 17.0902Z"
        fill="url(#paint0_linear_0_1)" />
    <path fill-rule="evenodd" clip-rule="evenodd"
        d="M92.0913 94.7399C83.5397 103.035 63.6574 104.318 56.7737 104.318C44.8017 103.633 27.3942 100.052 25.4754 86.7016C24.5606 83.3832 25.011 76.3516 25.8421 69.3061C22.9655 70.3185 20.4105 69.9761 19.5089 67.1712C19.2858 66.4772 19.1893 65.6677 19.0966 64.8891V64.889C18.8832 63.0985 18.6894 61.4714 17.0199 61.7884C14.6243 62.2433 8.75706 62.9155 10.1217 59.9111C10.5079 59.0608 11.2465 57.8403 12.1295 56.3813C14.366 52.6856 17.5287 47.4593 18.237 42.8415C19.0273 37.6887 23.2137 39.5014 25.9616 42.2207C26.7685 43.3754 27.9566 45.3294 29.1716 47.6282C30.1903 42.0465 33.0181 36.9306 37.2489 33.0901C42.0184 28.7607 48.229 26.3623 54.6704 26.3623C61.1118 26.3623 67.3224 28.7607 72.0918 33.0901C75.4906 36.1754 78.0525 38.7142 79.371 43.6401C80.2931 43.0484 81.4329 42.1067 82.8339 40.6983C88.7271 34.7743 92.4126 35.4721 93.834 37.6962C95.8404 40.1276 97.5747 52.1079 94.3276 62.2555C91.0805 72.4032 89.1227 72.7927 88.5496 71.7191C88.4647 70.0768 87.8734 66.7701 86.1872 66.6813C84.9431 66.6158 84.3244 67.5065 83.6855 68.4263C83.2421 69.0647 82.7889 69.7172 82.11 70.0737C81.2878 70.5056 80.9079 68.8858 80.4479 66.9246C80.0606 65.2736 79.6166 63.3806 78.8042 62.2658C78.5128 67.8928 78.9393 74.4699 81.616 79.1335C82.9139 80.2681 84.3004 81.3237 85.6439 82.3465C90.6292 86.1418 95.0216 89.4857 92.0913 94.7399Z"
        fill="#FCFCFC" />
    <ellipse cx="44.2388" cy="50.4457" rx="4.52708" ry="6.22474" fill="url(#paint1_linear_0_1)" />
    <ellipse cx="62.0989" cy="50.4457" rx="4.52708" ry="6.22474" fill="url(#paint2_linear_0_1)" />
    <defs>
        <linearGradient id="paint0_linear_0_1" x1="84.7685" y1="-0.801086" x2="-23.3645"
            y2="25.9371" gradientUnits="userSpaceOnUse">
            <stop stop-color="#3747A6" />
            <stop offset="1" stop-color="#BF2011" stop-opacity="0.6" />
        </linearGradient>
        <linearGradient id="paint1_linear_0_1" x1="46.9434" y1="42.873" x2="37.4982" y2="44.6752"
            gradientUnits="userSpaceOnUse">
            <stop stop-color="#3747A6" />
            <stop offset="1" stop-color="#BF2011" stop-opacity="0.6" />
        </linearGradient>
        <linearGradient id="paint2_linear_0_1" x1="64.8036" y1="42.873" x2="55.3583" y2="44.6752"
            gradientUnits="userSpaceOnUse">
            <stop stop-color="#3747A6" />
            <stop offset="1" stop-color="#BF2011" stop-opacity="0.6" />
        </linearGradient>
    </defs>
</svg>
    