<svg xmlns="http://www.w3.org/2000/svg" width="15" height="14" viewBox="0 0 15 14" fill="none">
    <path d="M11.0883 6.29417V8.6275C11.0883 8.77917 11.0824 8.925 11.0649 9.065C10.9308 10.64 10.0033 11.4217 8.2941 11.4217H8.06077C7.91494 11.4217 7.77493 11.4917 7.68743 11.6083L6.98744 12.5417C6.67828 12.9558 6.1766 12.9558 5.86743 12.5417L5.16743 11.6083C5.09159 11.5092 4.92244 11.4217 4.7941 11.4217H4.56077C2.69994 11.4217 1.7666 10.9608 1.7666 8.6275V6.29417C1.7666 4.585 2.55411 3.6575 4.12327 3.52334C4.26327 3.50584 4.40911 3.5 4.56077 3.5H8.2941C10.1549 3.5 11.0883 4.43334 11.0883 6.29417Z" stroke="white" stroke-opacity="0.7" stroke-width="0.875" stroke-miterlimit="10" stroke-linecap="round" stroke-linejoin="round"/>
    <path d="M13.4214 3.96083V6.29416C13.4214 8.00916 12.6339 8.93083 11.0647 9.06499C11.0822 8.92499 11.088 8.77916 11.088 8.62749V6.29416C11.088 4.43333 10.1547 3.49999 8.29388 3.49999H4.56055C4.40888 3.49999 4.26305 3.50583 4.12305 3.52333C4.25721 1.95416 5.18471 1.16666 6.89388 1.16666H10.6272C12.488 1.16666 13.4214 2.09999 13.4214 3.96083Z" stroke="white" stroke-opacity="0.7" stroke-width="0.875" stroke-miterlimit="10" stroke-linecap="round" stroke-linejoin="round"/>
    <path d="M8.47166 7.72917H8.47691" stroke="white" stroke-opacity="0.7" stroke-width="1.16667" stroke-linecap="round" stroke-linejoin="round"/>
    <path d="M6.43064 7.72917H6.43589" stroke="white" stroke-opacity="0.7" stroke-width="1.16667" stroke-linecap="round" stroke-linejoin="round"/>
    <path d="M4.38865 7.72917H4.3939" stroke="white" stroke-opacity="0.7" stroke-width="1.16667" stroke-linecap="round" stroke-linejoin="round"/>
    </svg>