<svg width="14" height="16" viewBox="0 0 14 16" fill="none" xmlns="http://www.w3.org/2000/svg">
    <g id="Group">
    <path id="Vector" fill-rule="evenodd" clip-rule="evenodd" d="M0.742031 4.57488C0.742109 4.22988 0.981406 3.80637 1.2775 3.62824L6.45383 0.514338C6.74953 0.336447 7.22844 0.336447 7.52469 0.514963L12.7028 3.63481C12.9986 3.81293 13.2382 4.2366 13.2381 4.58309L13.2359 10.8021C13.2359 11.1476 12.9962 11.5728 12.7009 11.7516L7.51344 14.8926C7.21805 15.0715 6.73977 15.0714 6.44391 14.8918L1.27461 11.7524C0.979297 11.5731 0.740078 11.1482 0.740234 10.8031L0.742031 4.57488ZM1.83078 4.0691L6.97406 6.9409L11.8777 4.10668L6.96578 1.22246L1.83078 4.0691ZM1.49906 4.99856C1.49906 5.12574 1.41586 10.6126 1.41586 10.6126C1.4132 10.785 1.53047 10.9968 1.67891 11.0864L6.49234 13.9912L6.53664 7.94332C6.53664 7.94332 1.49906 4.87129 1.49906 4.99856ZM7.44492 13.9781L12.2037 10.9578C12.3859 10.8422 12.5336 10.5738 12.5336 10.3579V4.9677L7.44492 7.8984V13.9781Z" fill="#3A3848"/>
    <path id="Vector_2" fill-rule="evenodd" clip-rule="evenodd" d="M3.07498 8.02723C2.70139 8.24301 2.20608 8.08465 1.96873 7.67363C1.73147 7.26262 1.84201 6.75449 2.21561 6.53879C2.58928 6.32301 3.08459 6.48137 3.32186 6.89238C3.5592 7.3034 3.44866 7.81153 3.07498 8.02723ZM5.57498 9.66785C5.20139 9.88364 4.70608 9.72528 4.46873 9.31426C4.23147 8.90324 4.34201 8.39512 4.71561 8.17942C5.08928 7.96363 5.58459 8.12199 5.82186 8.53301C6.0592 8.94403 5.94866 9.45215 5.57498 9.66785ZM3.07498 10.9179C2.70139 11.1336 2.20608 10.9753 1.96873 10.5643C1.73147 10.1532 1.84201 9.64512 2.21561 9.42942C2.58928 9.21363 3.08459 9.37199 3.32186 9.78301C3.5592 10.194 3.44866 10.7022 3.07498 10.9179ZM5.57498 12.5585C5.20139 12.7743 4.70608 12.6159 4.46873 12.2049C4.23147 11.7939 4.34201 11.2857 4.71561 11.07C5.08928 10.8543 5.58459 11.0126 5.82186 11.4236C6.0592 11.8347 5.94866 12.3428 5.57498 12.5585ZM11.6873 6.46067C11.3137 6.24488 10.8184 6.40324 10.5811 6.81426C10.3438 7.22528 10.4543 7.7334 10.828 7.9491C11.2016 8.16489 11.6969 8.00653 11.9342 7.59551C12.1715 7.18449 12.061 6.67637 11.6873 6.46067ZM10.4187 8.72629C10.0451 8.51051 9.54983 8.66887 9.31248 9.07988C9.07522 9.4909 9.18576 9.99903 9.55936 10.2147C9.93303 10.4305 10.4283 10.2722 10.6656 9.86113C10.903 9.45012 10.7924 8.94199 10.4187 8.72629ZM9.09061 10.9138C8.71701 10.698 8.2217 10.8564 7.98436 11.2674C7.74709 11.6784 7.85764 12.1865 8.23123 12.4022C8.6049 12.618 9.10022 12.4597 9.33748 12.0486C9.57483 11.6376 9.46428 11.1295 9.09061 10.9138ZM7.03905 3.08293C6.54287 3.08293 6.14061 3.4677 6.14061 3.94231C6.14061 4.41692 6.54287 4.80168 7.03905 4.80168C7.53522 4.80168 7.93748 4.41692 7.93748 3.94231C7.93748 3.4677 7.53522 3.08293 7.03905 3.08293Z" fill="#3A3848"/>
    </g>
    </svg>
    