<svg xmlns="http://www.w3.org/2000/svg" width="20" height="20" viewBox="0 0 20 20" fill="none">
    <path d="M15.7585 12.2437C15.7585 13.3187 16.6418 14.1937 17.7168 14.1937C17.7168 17.3187 16.9335 18.1021 13.8085 18.1021H5.99183C2.86683 18.1021 2.0835 17.3187 2.0835 14.1937V13.8104C3.1585 13.8104 4.04183 12.9271 4.04183 11.8521C4.04183 10.7771 3.1585 9.89375 2.0835 9.89375V9.51041C2.09183 6.38541 2.86683 5.60208 5.99183 5.60208H13.8002C16.9252 5.60208 17.7085 6.38541 17.7085 9.51041V10.2937C16.6335 10.2937 15.7585 11.1604 15.7585 12.2437Z" stroke="#A15E92" stroke-width="1.25" stroke-linecap="round" stroke-linejoin="round"/>
    <path d="M13.5091 5.60209H5.93408L8.37575 3.16042C10.3674 1.16875 11.3674 1.16875 13.3591 3.16042L13.8591 3.66042C13.3341 4.18542 13.2091 4.96042 13.5091 5.60209Z" stroke="#A15E92" stroke-width="1.25" stroke-linecap="round" stroke-linejoin="round"/>
    <path d="M8.23242 5.60222L8.23242 18.1022" stroke="#A15E92" stroke-width="1.25" stroke-linecap="round" stroke-linejoin="round" stroke-dasharray="4.17 4.17"/>
    </svg>